<svg width="231" height="274" viewBox="0 0 231 274" fill="none" xmlns="http://www.w3.org/2000/svg">
<g clip-path="url(#clip0_5_13)">
<path d="M116.72 274C163.984 274 202.299 266.296 202.299 256.792C202.299 247.289 163.984 239.585 116.72 239.585C69.4557 239.585 31.1406 247.289 31.1406 256.792C31.1406 266.296 69.4557 274 116.72 274Z" fill="#3F3D56"/>
<path d="M45.3989 94.7104C45.3989 69.6414 77.7335 49.3189 117.62 49.3189C157.507 49.3189 189.842 69.6414 189.842 94.7104" stroke="#3F3D56" stroke-width="2" stroke-miterlimit="10"/>
<path d="M140.329 66.796H81.573C69.9519 44.5307 69.9519 22.2653 81.573 0H140.329C124.08 22.2653 124.08 44.5307 140.329 66.796Z" fill="#E6E6E6"/>
<path d="M123.075 7.9519H89.9667V12.723H123.075V7.9519Z" fill="#6C63FF"/>
<path d="M123.075 23.5907H79.2414V25.181H123.075V23.5907Z" fill="white"/>
<path d="M123.075 31.8076H79.2414V33.398H123.075V31.8076Z" fill="white"/>
<path d="M123.075 40.0246H79.2414V41.615H123.075V40.0246Z" fill="white"/>
<path d="M163.787 214.653C163.787 235.837 175.477 252.979 189.924 252.979Z" fill="#3F3D56"/>
<path d="M189.924 252.979C189.924 231.557 202.97 214.222 219.091 214.222Z" fill="#6C63FF"/>
<path d="M173.257 216.573C173.257 236.696 180.712 252.979 189.924 252.979Z" fill="#6C63FF"/>
<path d="M189.924 252.979C189.924 225.606 205.003 203.457 223.637 203.457Z" fill="#3F3D56"/>
<path d="M184.426 253.249C184.426 253.249 188.132 253.119 189.249 252.215C190.366 251.311 194.951 250.231 195.228 251.681C195.505 253.132 200.799 258.895 196.614 258.933C192.429 258.971 186.89 258.192 185.775 257.42C184.66 256.648 184.426 253.249 184.426 253.249Z" fill="#A8A8A8"/>
<path opacity="0.2" d="M196.689 258.428C192.504 258.466 186.965 257.687 185.85 256.915C185.001 256.327 184.663 254.217 184.549 253.244C184.471 253.248 184.426 253.249 184.426 253.249C184.426 253.249 184.66 256.648 185.775 257.42C186.89 258.192 192.429 258.971 196.614 258.933C197.822 258.922 198.239 258.433 198.216 257.71C198.048 258.147 197.588 258.42 196.689 258.428Z" fill="black"/>
<path d="M104.159 52.1797C104.5 52.3571 104.909 52.0927 105.109 51.7334C105.873 50.3652 104.467 48.601 104.771 47.018C105.015 45.7497 106.283 44.997 106.542 43.7326C106.794 42.5041 106.018 41.1194 106.543 40.0078C106.954 39.1369 107.98 38.9077 108.839 39.0603C109.698 39.2128 110.513 39.6421 111.381 39.7022C112.537 39.7824 113.639 39.2037 114.77 38.917C115.9 38.6303 117.279 38.7426 117.945 39.8208C118.799 41.2052 117.932 43.1329 118.23 44.7897C118.466 46.1052 119.435 47.1946 119.455 48.5371C119.463 49.0142 118.359 48.6298 118.418 49.1024C118.477 49.5749 117.955 49.1589 118.372 49.1027C118.542 49.0553 118.695 48.9476 118.808 48.7951C118.92 48.6426 118.988 48.4532 118.999 48.2544C119.049 47.8608 119.7 47.7296 119.692 47.3321C119.674 46.4005 121.156 47.0286 121.4 46.1391C121.961 44.0653 121.846 41.831 121.076 39.8459C120.743 38.9984 120.291 38.1963 120.131 37.2865C119.913 36.0513 120.255 34.7253 119.896 33.5334C119.413 31.9272 117.812 31.1084 116.326 30.9421C114.839 30.7758 113.329 31.0735 111.851 30.8283C110.528 30.6086 109.246 29.9564 107.911 30.0509C106.309 30.1643 104.915 31.3378 103.804 32.6555C102.693 33.9732 101.751 35.4887 100.49 36.6175C100.104 36.9196 99.7475 37.2683 99.4273 37.6575C98.7849 38.5475 98.7197 39.8154 98.8984 40.9486C99.0772 42.0818 99.466 43.1628 99.6302 44.2989C99.7845 45.3665 99.7369 46.4573 99.8034 47.5366C99.8698 48.6159 100.067 49.7279 100.639 50.5928C100.868 50.9461 101.164 51.2354 101.507 51.4386C101.849 51.6418 102.227 51.7536 102.613 51.7654C102.88 51.7724 103.106 51.4993 103.376 51.5705C103.713 51.6595 103.86 52.0237 104.159 52.1797Z" fill="#2F2E41"/>
<path d="M92.7243 130.616L93.7152 137.536L95.6972 134.478L94.5646 129.811L92.7243 130.616Z" fill="#A0616A"/>
<path d="M93.9984 78.3119L92.438 82.9866C92.438 82.9866 90.884 106.797 90.884 108.568C90.884 110.338 92.0165 133.029 92.4412 133.995C92.4412 133.995 94.2815 130.937 96.6881 131.42C99.0946 131.903 98.1037 123.373 98.1037 123.373L100.369 102.291L99.944 91.6695L93.9984 78.3119Z" fill="#575A89"/>
<path opacity="0.1" d="M93.9984 78.3119L92.438 82.9866C92.438 82.9866 90.884 106.797 90.884 108.568C90.884 110.338 92.0165 133.029 92.4412 133.995C92.4412 133.995 94.2815 130.937 96.6881 131.42C99.0946 131.903 98.1037 123.373 98.1037 123.373L100.369 102.291L99.944 91.6695L93.9984 78.3119Z" fill="black"/>
<path d="M103.625 52.5625C103.625 52.5625 108.296 66.0809 105.607 68.6559C102.917 71.2308 120.612 64.3106 120.612 64.3106L120.188 62.5404C120.188 62.5404 114.383 59.9654 117.215 52.5625C120.046 45.1595 103.625 52.5625 103.625 52.5625Z" fill="#A0616A"/>
<path opacity="0.1" d="M103.625 52.5625C103.625 52.5625 108.296 66.0809 105.607 68.6559C102.917 71.2308 120.612 64.3106 120.612 64.3106L120.188 62.5404C120.188 62.5404 114.383 59.9654 117.215 52.5625C120.046 45.1595 103.625 52.5625 103.625 52.5625Z" fill="black"/>
<path d="M96.2634 233.13C96.2634 233.13 94.2815 232.487 93.149 234.096C92.0165 235.705 87.7696 239.729 87.7696 239.729C87.7696 239.729 79.559 238.763 78.4265 243.43C77.294 248.097 91.3087 248.097 94.7062 246.971C98.1037 245.844 98.8115 246.971 98.8115 246.971C98.8115 246.971 109.287 247.936 109.287 246.005C109.287 244.074 108.296 237.476 108.296 237.476L96.2634 233.13Z" fill="#575A89"/>
<path d="M129.531 243.913L127.69 250.35C127.69 250.35 122.169 259.041 125.284 260.811C128.398 262.581 139.44 264.352 139.44 259.685V250.833C139.44 250.833 138.308 244.557 137.175 243.913C136.043 243.269 129.531 243.913 129.531 243.913Z" fill="#575A89"/>
<path d="M98.2682 128.261C98.2682 128.261 92.2996 134.156 92.4412 134.961C92.5828 135.765 95.414 187.425 95.414 187.425L96.9712 220.899C96.9712 220.899 94.9893 228.785 95.9803 230.556C96.9712 232.326 94.5646 232.809 94.5646 232.809C94.5646 232.809 104.757 243.269 109.004 238.763L112.968 180.344L123.868 222.831C123.868 222.831 125.708 245.361 127.832 245.361C129.955 245.361 138.591 245.844 138.449 244.557C138.308 243.269 138.874 233.452 137.883 227.659C136.892 221.865 130.238 175.999 130.238 175.999C130.238 175.999 129.666 136.679 131.156 133.003C132.645 129.328 130.38 125.466 130.38 125.466L120.471 121.12L108.579 122.73L98.2682 128.261Z" fill="#2F2E41"/>
<path d="M110.278 58.0342C115.751 58.0342 120.188 52.9906 120.188 46.7689C120.188 40.5472 115.751 35.5035 110.278 35.5035C104.805 35.5035 100.369 40.5472 100.369 46.7689C100.369 52.9906 104.805 58.0342 110.278 58.0342Z" fill="#A0616A"/>
<path d="M134.344 71.0699C133.854 69.4953 133.029 68.0832 131.942 66.9598C130.855 65.8365 129.54 65.0369 128.115 64.6325C125.26 63.816 122.466 62.7396 119.763 61.4139C119.763 61.4139 109.712 66.8856 107.73 66.8856C105.748 66.8856 105.748 65.4372 105.748 65.4372C105.748 65.4372 100.652 71.5527 97.9621 72.1964C95.2724 72.8402 91.3087 80.4041 92.7243 84.5884C93.6858 87.2709 95.0779 89.7267 96.8296 91.8304C96.8296 91.8304 96.2634 114.361 98.1037 118.545C98.1037 118.545 93.5737 128.362 97.8206 129.006C102.067 129.65 118.347 127.397 121.178 129.65C124.01 131.903 129.248 129.167 129.955 132.225C130.663 135.283 132.22 135.926 132.22 135.926C132.22 135.926 134.627 131.581 133.211 129.006C131.796 126.431 134.344 71.0699 134.344 71.0699Z" fill="#575A89"/>
<path d="M123.868 131.581L121.603 133.19C121.603 133.19 124.01 142.686 125.001 143.007C125.992 143.329 128.324 134.889 128.324 134.889L123.868 131.581Z" fill="#A0616A"/>
<path d="M102.46 51.0531C102.801 51.2305 103.21 50.9661 103.411 50.6068C104.175 49.2387 102.768 47.4745 103.073 45.8914C103.317 44.6232 104.584 43.8704 104.844 42.6061C105.095 41.3776 104.319 39.9928 104.844 38.8812C105.255 38.0103 106.281 37.7812 107.14 37.9337C107.999 38.0863 108.814 38.5155 109.682 38.5757C110.838 38.6558 111.94 38.0772 113.071 37.7905C114.202 37.5038 115.581 37.616 116.246 38.6942C117.1 40.0786 116.233 42.0064 116.531 43.6631C116.767 44.9787 119.457 45.9021 119.701 45.0125C120.262 42.9387 120.147 40.7045 119.377 38.7193C119.045 37.8719 118.592 37.0698 118.432 36.16C118.214 34.9248 118.557 33.5987 118.198 32.4069C117.714 30.8007 116.113 29.9819 114.627 29.8156C113.141 29.6493 111.63 29.947 110.153 29.7018C108.829 29.4821 107.547 28.8299 106.212 28.9244C104.61 29.0378 103.216 30.2113 102.105 31.529C100.995 32.8466 100.052 34.3622 98.7912 35.491C98.405 35.7931 98.0487 36.1418 97.7286 36.531C97.0861 37.421 97.021 38.6888 97.1997 39.8221C97.3784 40.9553 97.7673 42.0363 97.9315 43.1723C98.0858 44.24 98.0382 45.3307 98.1046 46.41C98.1711 47.4893 98.3682 48.6014 98.9399 49.4663C99.1689 49.8196 99.4657 50.1088 99.8079 50.312C100.15 50.5152 100.528 50.627 100.914 50.6389C101.182 50.6459 101.407 50.3728 101.677 50.444C102.014 50.533 102.161 50.8971 102.46 51.0531Z" fill="#2F2E41"/>
<path opacity="0.1" d="M128.752 73.8862L133.353 71.0699C133.353 71.0699 144.536 101.325 141.847 109.694C139.157 118.063 128.823 135.283 128.823 135.283C128.823 135.283 120.612 133.351 121.462 131.42C122.311 129.489 127.832 117.097 128.257 115.488C128.681 113.878 131.513 103.418 130.238 102.291C128.964 101.165 126.487 75.0128 126.487 75.0128L128.752 73.8862Z" fill="black"/>
<path d="M128.681 69.2996L134.344 71.0699C134.344 71.0699 145.527 101.325 142.838 109.694C140.148 118.063 129.814 135.283 129.814 135.283C129.814 135.283 121.603 133.351 122.452 131.42C123.302 129.489 128.823 117.097 129.247 115.488C129.672 113.878 132.503 103.418 131.229 102.291C129.955 101.165 123.868 73.323 123.868 73.323L128.681 69.2996Z" fill="#575A89"/>
<path d="M189.842 94.7104C189.842 120.994 157.507 142.3 117.62 142.3C77.7335 142.3 45.3989 120.994 45.3989 94.7104" stroke="#3F3D56" stroke-width="2" stroke-miterlimit="10"/>
<path d="M176.705 142.976C160.561 152.874 139.497 158.863 116.455 158.863C94.3629 158.863 74.0887 153.357 58.2265 144.179" stroke="#3F3D56" stroke-width="2" stroke-miterlimit="10"/>
<path d="M153.687 37.0316C184.409 46.2116 206.29 66.4044 208.324 90.187" stroke="#3F3D56" stroke-width="2" stroke-miterlimit="10"/>
<path d="M28.865 74.7289C34.0416 63.9126 43.4983 54.3939 55.8884 47.0811" stroke="#3F3D56" stroke-width="2" stroke-miterlimit="10"/>
<path d="M92.3784 190.512H151.134C162.755 168.246 162.755 145.981 151.134 123.716H92.3784C108.627 145.981 108.627 168.246 92.3784 190.512Z" fill="#F2F2F2"/>
<path d="M144.928 136.439H111.82V141.21H144.928V136.439Z" fill="#6C63FF"/>
<path d="M153.089 150.752H109.255V152.343H153.089V150.752Z" fill="white"/>
<path d="M153.089 158.969H109.255V160.559H153.089V158.969Z" fill="white"/>
<path d="M67.4717 145.174H8.7158C-2.90527 122.908 -2.90527 100.643 8.7158 78.3775H67.4717C51.2228 100.643 51.2228 122.908 67.4717 145.174Z" fill="#F2F2F2"/>
<path d="M48.3528 86.3294H15.2442V91.1006H48.3528V86.3294Z" fill="#6C63FF"/>
<path d="M51.8501 99.5826H8.01633V101.173H51.8501V99.5826Z" fill="white"/>
<path d="M51.8501 107.8H8.01633V109.39H51.8501V107.8Z" fill="white"/>
<path d="M51.8501 116.017H8.01633V117.607H51.8501V116.017Z" fill="white"/>
<path d="M51.8501 124.234H8.01633V125.824H51.8501V124.234Z" fill="white"/>
<path d="M163.528 114.405H222.284C233.905 92.1396 233.905 69.8743 222.284 47.609H163.528C179.777 69.8743 179.777 92.1396 163.528 114.405Z" fill="#F2F2F2"/>
<path d="M215.378 54.2355H182.27V59.0067H215.378V54.2355Z" fill="#6C63FF"/>
<path d="M222.606 67.4887H178.773V69.0791H222.606V67.4887Z" fill="white"/>
</g>
<defs>
<clipPath id="clip0_5_13">
<rect width="231" height="274" fill="white"/>
</clipPath>
</defs>
</svg>
